<svg xmlns="http://www.w3.org/2000/svg" width="21" height="20" fill="none"><path fill="#345A9B" fill-rule="evenodd" d="M3.053 10.123c.019.163-.01.115.221.125l5.679-.01a12.1 12.1 0 0 0-.703-1.087c-.28-.395-.481-.713-.75-1.098L5.997 5.86c-.318.472-2.628 4.071-2.945 4.264Zm12.127.096.106.23-4.457.01c-.827 0-1.135.126-1.29-.201l5.304-.01-.03-.116c-.24-.404-.577-.856-.846-1.25-.289-.434-.549-.829-.857-1.271l-1.723-2.59-.096-.019h-.019a38.005 38.005 0 0 0-2.454 3.6c-.06.103-.135.197-.222.28L7.26 6.907 8.673 4.8c.231-.356.472-.693.693-1.04.222-.336.472-.692.713-1.02.238.304.456.622.654.954a89.492 89.492 0 0 1 2.474 3.628 80.758 80.758 0 0 0 1.973 2.897Zm-1.02-4.793.923-1.309c.19.318.396.627.616.924.222.318 1.82 2.637 1.868 2.81.634.829 1.225 1.69 1.77 2.58-.664.057-2.261.01-3.089.01-.76 0-.703.076-.818-.203l3.407-.067a23.5 23.5 0 0 0-1.511-2.31l-1.367-2.012-1.732 2.56c-.116-.057-.02.04-.135-.115l-.404-.597a4.218 4.218 0 0 1-.51-.789c.115-.289.722-1.078.981-1.482ZM.694 10.257a.678.678 0 0 0-.202.405h19.172c-.121-.334-.3-.644-.53-.915l-1.751-2.56c-.212-.308-.357-.568-.578-.876-.202-.279-.356-.52-.568-.827-.183-.26-.414-.587-.587-.867a8.771 8.771 0 0 0-.568-.818c-.192.145-1.674 2.445-1.982 2.868l-.077.087c-.298-.558-2.281-3.31-2.907-4.312h-.067L8.606 4.58c-.25.375-.462.712-.722 1.068-.134.193-.24.356-.365.53-.125.173-.24.375-.385.539a5.888 5.888 0 0 1-.51-.693c-.174-.26-.328-.51-.52-.77a16.6 16.6 0 0 0-1.03-1.463c-.75 1.107-1.444 2.107-2.185 3.234-.183.269-.356.529-.539.798-.192.29-.346.53-.539.8-.394.557-.731 1.125-1.116 1.635ZM8.48 9.054c.323.452.622.921.895 1.405H1.224c-.144-.01-.414.049-.375-.086.366-.54.683-1.001 1.04-1.54.124-.183 3.05-4.572 3.233-4.706.577.981 1.492 2.242 2.166 3.195.202.298.385.558.596.866.193.27.385.616.597.866ZM3.457 14.964c.722-.02.963-.212 1.116-.876.091-.605.124-1.217.097-1.829l.789-.01.029 2.618.856-.01-.01-3.339-2.502-.01c-.048.52-.019 1.088-.028 1.618-.02.923-.039.914-.443 1.135l.096.703Zm3.686-.087h.847l.039-1.415c.404.395.74 1.01 1.135 1.425l1.088-.01c-.202-.385-1.068-1.3-1.386-1.752.183-.404 1.126-1.27 1.26-1.616l-1.039-.01c-.329.467-.682.917-1.058 1.347l-.01-1.347h-.847l-.029 3.378Zm-6.64-3.301-.01 1.02a1.138 1.138 0 0 1 .837-.327.706.706 0 0 1 .703.53l-1.117.009-.01.654 1.175.03c-.154.605-.857.846-1.579.288l-.01 1.01a1.78 1.78 0 1 0 .01-3.214Zm11.356 2.03a4.98 4.98 0 0 1 .376-1.03l.317 1.05-.693-.02Zm3.484.164c.53-.028 1.01.02 1.348-.279a1.307 1.307 0 0 0 .288-1.241c-.24-.924-1.52-.77-2.521-.741l.029 3.368.837-.01.02-1.097Zm0-1.55c.443-.009.52.01.75.212a.32.32 0 0 1-.009.414.913.913 0 0 1-.76.203l.02-.828Zm4.322.03v-.751h-2.262l-.02.741h.713l.01 2.618.875.01v-2.6l.684-.018Zm-6.882 2.05.27.587.885-.02a33.134 33.134 0 0 0-1.26-3.358l-.954.019-1.26 3.35h.895l.279-.578h1.145Z" clip-rule="evenodd"/></svg>