<svg xmlns="http://www.w3.org/2000/svg" width="27" height="20" fill="none"><path fill="#FF5F00" d="M16.71 15.93H9.78V3.481h6.93V15.93Z"/><path fill="#EB001B" d="M10.224 9.682a7.902 7.902 0 0 1 3.021-6.244c-1.36-1.058-3.071-1.712-4.884-1.712A7.887 7.887 0 0 0 .456 9.63a7.887 7.887 0 0 0 7.905 7.906c1.863 0 3.525-.655 4.884-1.712-1.863-1.36-3.021-3.626-3.021-6.143Z"/><path fill="#F79E1B" d="M26.056 9.682a7.887 7.887 0 0 1-7.906 7.905c-1.863 0-3.524-.654-4.884-1.712 1.863-1.46 3.021-3.676 3.021-6.244 0-2.568-1.158-4.783-3.02-6.243 1.359-1.058 3.07-1.712 4.883-1.712 4.33.1 7.906 3.625 7.906 8.006Z"/></svg>