<svg width="28" height="19" fill="none" xmlns="http://www.w3.org/2000/svg"><path d="M26.617.672 19.722.67h-.002l-.015.001c-.948.03-2.127.789-2.342 1.726l-3.26 14.427c-.216.946.369 1.715 1.309 1.729h7.243c.926-.046 1.826-.797 2.037-1.723l3.261-14.427c.219-.956-.38-1.731-1.336-1.731Z" fill="#01798A"/><path d="m14.102 16.824 3.26-14.428C17.578 1.46 18.758.7 19.705.671L16.963.669h-4.94c-.949.019-2.144.784-2.359 1.728L6.403 16.824c-.216.946.37 1.715 1.309 1.729h7.7c-.94-.014-1.525-.783-1.31-1.729Z" fill="#024381"/><path d="M6.403 16.824 9.665 2.396c.214-.943 1.41-1.708 2.36-1.728L5.696.667c-.955 0-2.18.774-2.398 1.73L.037 16.823c-.02.088-.03.174-.037.259v.267c.064.69.59 1.191 1.347 1.203h6.365c-.94-.014-1.525-.783-1.309-1.729Z" fill="#DD0228"/><path d="M12.158 11.181h.12c.11 0 .183-.037.218-.11l.311-.466h.833l-.173.307h.999l-.127.47H13.15c-.137.205-.305.302-.508.29h-.62l.136-.49Zm-.137.673h2.189l-.14.51h-.88l-.135.491h.857l-.14.51h-.856l-.2.727c-.048.122.017.176.194.164h.698l-.129.474h-1.34c-.254 0-.341-.146-.262-.437l.255-.928h-.548l.14-.51h.547l.134-.491h-.523l.139-.51Zm3.493-1.252-.034.298s.413-.31.788-.31h1.385l-.53 1.919c-.044.219-.232.328-.565.328h-1.57l-.368 1.347c-.021.072.009.11.088.11h.309l-.114.417h-.785c-.302 0-.427-.09-.378-.273l1.04-3.836h.734Zm1.174.542H15.45l-.148.518s.206-.149.55-.154c.343-.005.735 0 .735 0l.1-.364Zm-.448 1.2c.091.013.142-.023.148-.108l.076-.273h-1.239l-.104.382h1.118Zm-.836.62h.714l-.013.31h.19c.096 0 .144-.031.144-.092l.056-.2h.593l-.079.292c-.067.243-.245.37-.533.382h-.38l-.003.528c-.006.085.07.128.227.128h.358l-.116.418h-.857c-.24.011-.358-.103-.356-.346l.055-1.42ZM6.752 8.047c-.096.475-.32.84-.67 1.098-.344.255-.79.382-1.334.382-.513 0-.889-.13-1.129-.392-.166-.185-.249-.421-.249-.706 0-.118.014-.245.042-.382l.58-2.799h.878l-.573 2.768a.89.89 0 0 0-.023.212c-.001.142.034.258.105.348.104.135.272.202.507.202.27 0 .492-.066.665-.199a.914.914 0 0 0 .336-.563l.574-2.768h.872l-.58 2.8Zm3.683-1.1h.686l-.537 2.497h-.686l.537-2.498Zm.216-.911h.693l-.13.606h-.693l.13-.606Zm1.078 3.218c-.18-.171-.27-.403-.271-.697a1.872 1.872 0 0 1 .037-.352c.081-.406.255-.728.522-.966.266-.238.588-.358.965-.358.309 0 .553.086.732.259.18.173.27.407.27.705 0 .05-.005.11-.011.173a3.177 3.177 0 0 1-.029.187c-.08.4-.252.718-.52.952a1.408 1.408 0 0 1-.962.352c-.31 0-.554-.085-.733-.255Zm1.309-.494c.121-.132.208-.33.26-.595a1.496 1.496 0 0 0 .026-.246.506.506 0 0 0-.118-.358c-.078-.086-.19-.128-.334-.128a.6.6 0 0 0-.466.2c-.123.135-.21.337-.264.606a.917.917 0 0 0-.024.239c0 .153.04.271.118.355.078.083.19.125.335.125a.604.604 0 0 0 .467-.198Z" fill="#fff"/><path d="M19.72.67h-2.757l2.741.001h.016Z" fill="#E02F41"/><path d="M16.963.67 12.062.666l-.038.001 4.939.001Z" fill="#2E4F7D"/><path d="m18.439 11.202.165-.582h.837l-.036.214s.428-.214.736-.214h1.035l-.164.582h-.163l-.78 2.749h.162l-.155.546h-.163l-.068.236h-.81l.067-.236h-1.6l.157-.546h.16l.782-2.749h-.162Zm.903 0-.213.744s.364-.14.679-.18c.07-.259.16-.564.16-.564h-.626Zm-.312 1.093-.214.779s.404-.199.682-.216c.08-.3.16-.563.16-.563h-.628Zm.157 1.656.16-.565h-.625l-.161.565h.626Zm2.025-3.367h.787l.033.29c-.005.074.039.11.132.11h.14l-.141.491h-.579c-.22.011-.334-.073-.345-.255l-.027-.636Zm-.231 1.055h2.55l-.15.528h-.812l-.14.491h.812l-.15.528h-.904l-.204.309h.442l.102.619c.012.061.067.091.16.091h.137l-.144.51h-.486c-.252.012-.382-.072-.393-.255l-.117-.565-.402.602a.436.436 0 0 1-.438.236h-.742l.144-.51h.231c.096 0 .175-.042.246-.127l.63-.91h-.812l.15-.528h.88l.14-.49h-.88l.15-.529ZM7.56 6.944h.62l-.072.361.09-.103a.964.964 0 0 1 .732-.321c.26 0 .448.076.566.228.117.152.148.363.093.633l-.341 1.702h-.636l.308-1.543c.031-.16.023-.278-.026-.355-.049-.076-.141-.114-.275-.114a.595.595 0 0 0-.413.152.756.756 0 0 0-.224.425l-.284 1.435H7.06l.5-2.5Zm7.102 0h.62l-.07.361.087-.103a.966.966 0 0 1 .733-.321c.26 0 .449.076.566.228.115.152.149.363.092.633l-.34 1.702h-.637l.308-1.543c.032-.16.023-.278-.025-.355-.05-.076-.141-.114-.274-.114a.6.6 0 0 0-.415.152.747.747 0 0 0-.222.425l-.286 1.435h-.637l.5-2.5Zm3.064-1.55h1.799c.346 0 .614.08.798.233.183.156.274.38.274.671v.009c0 .055-.003.118-.009.186-.009.068-.02.137-.035.205-.08.385-.263.695-.547.93a1.548 1.548 0 0 1-1.013.352h-.965l-.298 1.464h-.835l.83-4.05Zm.45 1.882h.8c.208 0 .374-.048.495-.144.12-.097.198-.245.242-.446l.017-.101c.003-.029.006-.058.006-.086 0-.144-.05-.248-.153-.313-.102-.066-.262-.097-.484-.097h-.68l-.244 1.187Zm6.16 2.652c-.263.561-.515.889-.663 1.041-.148.15-.441.5-1.147.475l.06-.43c.595-.182.916-1.007 1.1-1.372l-.219-2.69.46-.007h.385l.042 1.688.722-1.688h.732l-1.471 2.983Zm-2.045-2.78-.29.2c-.304-.237-.582-.384-1.117-.136-.729.338-1.338 2.93.67 2.077l.114.135.79.02.518-2.355-.685.06Zm-.45 1.288c-.126.375-.41.622-.631.551-.222-.068-.301-.43-.173-.804.127-.375.412-.622.632-.551.222.068.302.43.173.804Z" fill="#fff"/></svg>