<svg width="36" height="12" fill="none" xmlns="http://www.w3.org/2000/svg"><path d="M22.914.545c-2.453 0-4.647 1.273-4.647 3.622 0 2.696 3.89 2.883 3.89 4.235 0 .571-.655 1.08-1.769 1.08-1.584 0-2.768-.713-2.768-.713l-.508 2.374s1.363.602 3.173.602c2.684 0 4.795-1.336 4.795-3.727 0-2.847-3.906-3.027-3.906-4.287 0-.446.536-.937 1.65-.937 1.256 0 2.28.519 2.28.519l.495-2.29c0 .003-1.114-.478-2.685-.478zM.46.718l-.06.346s1.032.19 1.963.567c1.197.433 1.283.685 1.484 1.467l2.197 8.47h2.945l4.54-10.85H10.59L7.673 8.095l-1.19-6.253C6.375 1.126 5.822.718 5.143.718H.46zm14.251 0l-2.304 10.847h2.803L17.503.718H14.71zm15.63 0c-.675 0-1.035.363-1.298.993l-4.104 9.854h2.938l.567-1.644h3.581l.346 1.644h2.595L32.702.718H30.34zm.383 2.93l.872 4.073H29.26l1.463-4.073z" fill="url(#paint0_linear)"/><defs><linearGradient id="paint0_linear" x1=".4" y1="6.144" x2="34.964" y2="6.144" gradientUnits="userSpaceOnUse"><stop stop-color="#20225F"/><stop offset=".2" stop-color="#1A1F61"/><stop offset=".41" stop-color="#172272"/><stop offset=".595" stop-color="#152682"/><stop offset=".802" stop-color="#12288E"/><stop offset="1" stop-color="#0E2C9A"/></linearGradient></defs></svg>